<svg xmlns="http://www.w3.org/2000/svg" xmlns:xlink="http://www.w3.org/1999/xlink" width="500" zoomAndPan="magnify" viewBox="0 0 375 374.999991" height="500" preserveAspectRatio="xMidYMid meet" version="1.0"><path fill="#03a5c0" d="M 187.535156 374.984375 C 187.535156 374.984375 187.519531 374.984375 187.503906 374.984375 L 181.816406 374.902344 L 181.800781 374.902344 L 176.3125 374.773438 C 176.296875 374.773438 176.261719 374.773438 176.246094 374.773438 L 171.136719 374.574219 C 171.101562 374.574219 171.085938 374.574219 171.054688 374.574219 L 166.453125 374.296875 C 166.417969 374.296875 166.402344 374.296875 166.371094 374.296875 L 162.425781 373.949219 C 162.394531 373.949219 162.359375 373.949219 162.328125 373.933594 L 159.171875 373.539062 C 159.140625 373.539062 159.121094 373.539062 159.089844 373.523438 L 156.757812 373.078125 L 151.859375 371.75 L 126.75 365.503906 C 126.734375 365.503906 126.734375 365.503906 126.714844 365.488281 C 126.699219 365.488281 126.683594 365.472656 126.667969 365.472656 L 124.070312 364.582031 C 124.039062 364.566406 124.003906 364.550781 123.972656 364.535156 L 99.683594 353.226562 L 96.660156 352.0625 L 94.605469 351.125 C 94.539062 351.09375 94.472656 351.058594 94.410156 351.011719 L 67.769531 332.570312 C 67.703125 332.523438 67.65625 332.488281 67.589844 332.425781 L 44.5 309.53125 C 44.453125 309.484375 44.402344 309.433594 44.371094 309.367188 L 25.554688 282.582031 C 25.519531 282.53125 25.488281 282.46875 25.453125 282.417969 L 11.550781 252.675781 C 11.519531 252.609375 11.488281 252.542969 11.46875 252.460938 L 11.421875 252.246094 L 2.957031 220.695312 C 2.941406 220.644531 2.925781 220.578125 2.925781 220.53125 L 2.875 220.203125 C 2.859375 220.136719 2.84375 220.085938 2.84375 220.019531 L 0.015625 187.894531 L 0.015625 187.878906 L 0 187.761719 C 0 187.679688 0 187.597656 0.015625 187.515625 L 0.015625 187.320312 L 2.828125 155.09375 L 2.910156 154.535156 C 2.925781 154.46875 2.925781 154.402344 2.957031 154.335938 L 3.007812 154.15625 L 11.453125 122.621094 C 11.46875 122.554688 11.503906 122.472656 11.519531 122.410156 L 25.390625 92.664062 C 25.40625 92.613281 25.4375 92.566406 25.472656 92.515625 C 25.472656 92.5 25.488281 92.5 25.488281 92.484375 L 44.289062 65.699219 C 44.320312 65.648438 44.371094 65.582031 44.417969 65.53125 L 67.507812 42.574219 C 67.558594 42.527344 67.621094 42.476562 67.6875 42.429688 L 94.308594 23.972656 C 94.359375 23.925781 94.425781 23.890625 94.492188 23.859375 L 96.511719 22.9375 L 99.550781 21.769531 L 123.855469 10.449219 C 123.890625 10.433594 123.921875 10.417969 123.957031 10.398438 L 126.550781 9.511719 C 126.601562 9.496094 126.652344 9.480469 126.699219 9.480469 L 126.714844 9.480469 L 156.574219 1.921875 L 158.972656 1.460938 C 158.992188 1.460938 159.023438 1.460938 159.039062 1.445312 L 162.226562 1.050781 C 162.246094 1.050781 162.261719 1.050781 162.277344 1.050781 L 166.269531 0.703125 C 166.289062 0.703125 166.289062 0.703125 166.304688 0.703125 L 170.953125 0.425781 C 170.972656 0.425781 170.972656 0.425781 170.988281 0.425781 L 176.148438 0.210938 L 176.164062 0.210938 L 181.683594 0.078125 L 181.71875 0.078125 L 187.386719 0.015625 L 187.402344 0.015625 L 193.121094 0.078125 C 193.140625 0.078125 193.140625 0.078125 193.15625 0.078125 L 198.660156 0.210938 L 198.675781 0.210938 L 203.851562 0.425781 C 203.871094 0.425781 203.871094 0.425781 203.886719 0.425781 L 208.519531 0.703125 C 208.535156 0.703125 208.535156 0.703125 208.554688 0.703125 L 212.515625 1.050781 C 212.546875 1.050781 212.578125 1.050781 212.613281 1.066406 L 215.765625 1.460938 C 215.785156 1.460938 215.800781 1.460938 215.832031 1.476562 L 218.167969 1.921875 L 223.128906 3.269531 L 248.191406 9.496094 L 250.769531 10.382812 L 280.25 23.824219 C 280.269531 23.824219 280.285156 23.84375 280.285156 23.84375 C 280.332031 23.859375 280.382812 23.890625 280.414062 23.925781 L 307.085938 42.378906 C 307.136719 42.410156 307.183594 42.460938 307.234375 42.492188 L 330.339844 65.433594 C 330.390625 65.484375 330.4375 65.53125 330.472656 65.597656 L 349.285156 92.367188 C 349.285156 92.386719 349.304688 92.386719 349.304688 92.402344 C 349.335938 92.449219 349.351562 92.5 349.386719 92.550781 L 363.289062 122.277344 C 363.320312 122.34375 363.335938 122.40625 363.371094 122.492188 L 371.898438 154.273438 C 371.914062 154.304688 371.914062 154.355469 371.933594 154.386719 C 371.933594 154.402344 371.933594 154.421875 371.933594 154.4375 L 371.980469 154.863281 C 371.980469 154.898438 371.996094 154.945312 371.996094 154.980469 L 374.824219 187.417969 C 374.824219 187.484375 374.824219 187.53125 374.824219 187.582031 L 372.015625 219.875 C 372.015625 219.90625 372.015625 219.921875 371.996094 219.957031 C 371.996094 219.972656 371.996094 219.988281 371.996094 219.988281 L 371.949219 220.367188 C 371.949219 220.382812 371.949219 220.414062 371.933594 220.433594 C 371.933594 220.464844 371.914062 220.515625 371.914062 220.546875 L 363.402344 252.328125 C 363.386719 252.394531 363.355469 252.476562 363.320312 252.542969 L 349.433594 282.304688 C 349.402344 282.367188 349.367188 282.417969 349.335938 282.484375 L 330.535156 309.269531 C 330.503906 309.320312 330.453125 309.386719 330.40625 309.417969 L 307.316406 332.375 C 307.265625 332.425781 307.203125 332.472656 307.136719 332.523438 L 280.496094 350.976562 C 280.449219 351.011719 280.382812 351.042969 280.332031 351.074219 L 250.949219 364.5 L 248.273438 365.421875 C 248.257812 365.421875 248.222656 365.4375 248.207031 365.4375 L 240.171875 367.476562 L 223.113281 371.699219 L 218.265625 373.015625 L 215.867188 373.472656 C 215.851562 373.472656 215.832031 373.472656 215.816406 373.472656 C 215.800781 373.472656 215.785156 373.472656 215.785156 373.472656 L 212.613281 373.867188 C 212.578125 373.867188 212.546875 373.867188 212.515625 373.886719 L 208.585938 374.230469 C 208.554688 374.230469 208.535156 374.230469 208.503906 374.230469 L 203.917969 374.507812 C 203.886719 374.507812 203.871094 374.507812 203.835938 374.507812 L 198.726562 374.722656 C 198.710938 374.722656 198.675781 374.722656 198.660156 374.722656 L 193.171875 374.855469 L 193.15625 374.855469 L 187.46875 374.9375 C 187.566406 374.984375 187.550781 374.984375 187.535156 374.984375 Z M 182.292969 372.816406 L 186.515625 372.851562 L 186.515625 369.054688 L 178.613281 369.003906 Z M 188.585938 369.054688 L 188.585938 372.851562 L 192.808594 372.816406 L 196.492188 368.988281 Z M 176.589844 372.703125 L 179.335938 372.765625 L 175.6875 368.972656 L 169.410156 368.839844 Z M 199.417969 368.953125 L 195.769531 372.75 L 198.511719 372.683594 L 205.695312 368.808594 Z M 171.363281 372.488281 L 171.875 372.503906 L 164.859375 368.726562 L 161.128906 368.578125 Z M 210.261719 368.707031 L 203.230469 372.503906 L 203.722656 372.488281 L 213.976562 368.578125 Z M 154.0625 368.296875 L 156.527344 369.070312 L 154.601562 368.332031 Z M 220.5 368.296875 L 218.609375 369.019531 L 221.042969 368.265625 Z M 176.820312 366.902344 L 186.515625 366.964844 L 186.515625 357.253906 L 172.285156 357.15625 Z M 188.601562 357.253906 L 188.601562 366.964844 L 198.300781 366.882812 L 202.835938 357.15625 Z M 165.597656 366.65625 L 174.503906 366.851562 L 169.984375 357.140625 L 156.722656 356.859375 Z M 205.136719 357.125 L 200.617188 366.835938 L 209.523438 366.636719 L 218.398438 356.84375 Z M 155.195312 366.261719 L 162.671875 366.554688 L 153.832031 356.8125 L 142.328125 356.398438 Z M 221.273438 356.777344 L 212.429688 366.539062 L 219.910156 366.242188 L 232.777344 356.351562 Z M 145.925781 365.734375 L 151.515625 366.0625 L 138.746094 356.253906 L 129.625 355.757812 Z M 236.359375 356.21875 L 223.589844 366.03125 L 229.160156 365.703125 L 245.460938 355.710938 Z M 138.054688 365.078125 L 141.324219 365.355469 L 125.253906 355.511719 L 119.042969 355.019531 Z M 249.867188 355.464844 L 233.792969 365.324219 L 237.066406 365.042969 L 256.078125 354.96875 Z M 131.792969 364.320312 L 132.285156 364.386719 L 113.785156 354.59375 L 111.007812 354.28125 Z M 261.320312 354.542969 L 242.816406 364.335938 L 243.308594 364.273438 L 264.097656 354.214844 Z M 171.429688 355.085938 L 186.515625 355.183594 L 186.515625 339.71875 L 166.929688 339.605469 Z M 188.601562 339.71875 L 188.601562 355.183594 L 203.6875 355.070312 L 208.191406 339.589844 Z M 154.933594 354.757812 L 169.246094 355.050781 L 164.742188 339.589844 L 146.105469 339.242188 Z M 210.359375 339.574219 L 205.859375 355.035156 L 220.171875 354.722656 L 228.996094 339.210938 Z M 139.632812 354.214844 L 152.5 354.675781 L 143.691406 339.195312 L 126.863281 338.652344 Z M 231.429688 339.160156 L 222.621094 354.660156 L 235.472656 354.183594 L 248.238281 338.601562 Z M 126.007812 353.476562 L 136.804688 354.066406 L 124.070312 338.554688 L 109.789062 337.847656 Z M 251.015625 338.503906 L 238.28125 354.035156 L 249.078125 353.441406 L 265.28125 337.796875 Z M 114.507812 352.570312 L 122.773438 353.226562 L 106.652344 337.683594 L 95.527344 336.894531 Z M 268.46875 337.617188 L 252.347656 353.179688 L 260.597656 352.523438 L 279.59375 336.828125 Z M 105.417969 351.535156 L 110.710938 352.144531 L 91.910156 336.613281 L 84.417969 335.84375 Z M 283.175781 336.546875 L 264.375 352.09375 L 269.667969 351.488281 L 290.652344 335.777344 Z M 99.027344 350.417969 L 100.882812 350.746094 L 80.359375 335.398438 L 77.003906 334.855469 Z M 294.730469 335.332031 L 274.203125 350.679688 L 276.042969 350.351562 L 298.046875 334.773438 Z M 166.402344 337.519531 L 186.515625 337.632812 L 186.515625 316.828125 L 162.292969 316.714844 Z M 188.601562 316.828125 L 188.601562 337.632812 L 208.734375 337.503906 L 212.84375 316.679688 Z M 145.023438 337.140625 L 164.265625 337.503906 L 160.15625 316.699219 L 136.988281 316.335938 Z M 214.945312 316.664062 L 210.835938 337.46875 L 230.082031 337.109375 L 238.117188 316.285156 Z M 125.222656 336.5 L 142.769531 337.074219 L 134.734375 316.285156 L 113.585938 315.710938 Z M 240.367188 316.253906 L 232.347656 337.042969 L 249.898438 336.464844 L 261.515625 315.664062 Z M 107.636719 335.644531 L 122.773438 336.382812 L 111.171875 315.613281 L 92.914062 314.855469 Z M 263.933594 315.582031 L 252.332031 336.351562 L 267.449219 335.59375 L 282.175781 314.808594 Z M 92.847656 334.609375 L 104.957031 335.464844 L 90.265625 314.742188 L 75.59375 313.855469 Z M 284.835938 314.675781 L 270.144531 335.414062 L 282.257812 334.542969 L 299.496094 313.773438 Z M 81.277344 333.425781 L 89.90625 334.3125 L 72.75 313.675781 L 62.214844 312.738281 Z M 302.355469 313.589844 L 285.199219 334.25 L 293.808594 333.34375 L 312.886719 312.636719 Z M 73.226562 332.144531 L 77.957031 332.917969 L 59.078125 312.457031 L 53.078125 311.621094 Z M 315.992188 312.359375 L 297.128906 332.835938 L 301.84375 332.0625 L 321.976562 311.503906 Z M 68.902344 330.832031 L 69.085938 330.878906 L 49.644531 311.078125 L 48.773438 310.832031 Z M 325.410156 310.980469 L 305.984375 330.796875 L 306.148438 330.746094 L 326.265625 310.75 Z M 161.933594 314.628906 L 186.515625 314.742188 L 186.515625 289.238281 L 158.480469 289.140625 Z M 188.601562 289.238281 L 188.601562 314.742188 L 213.1875 314.609375 L 216.636719 289.121094 Z M 136.265625 314.234375 L 159.828125 314.59375 L 156.363281 289.105469 L 129.492188 288.777344 Z M 218.742188 289.089844 L 215.289062 314.578125 L 238.855469 314.199219 L 245.609375 288.761719 Z M 112.519531 313.589844 L 134.109375 314.183594 L 127.355469 288.761719 L 102.757812 288.234375 Z M 247.761719 288.710938 L 241.007812 314.132812 L 262.585938 313.527344 L 272.347656 288.152344 Z M 91.484375 312.722656 L 110.234375 313.507812 L 100.488281 288.167969 L 79.125 287.464844 Z M 274.613281 288.121094 L 264.871094 313.460938 L 283.621094 312.671875 L 295.976562 287.414062 Z M 73.882812 311.667969 L 89.101562 312.589844 L 76.757812 287.398438 L 59.421875 286.574219 Z M 298.3125 287.316406 L 285.988281 312.523438 L 301.203125 311.585938 L 315.632812 286.476562 Z M 60.195312 310.46875 L 71.351562 311.457031 L 56.957031 286.425781 L 44.238281 285.539062 Z M 318.113281 286.34375 L 303.71875 311.375 L 314.859375 310.371094 L 330.816406 285.441406 Z M 50.796875 309.171875 L 57.5 310.109375 L 41.640625 285.328125 L 33.933594 284.472656 Z M 333.429688 285.246094 L 317.570312 310.027344 L 324.257812 309.089844 L 341.101562 284.390625 Z M 45.863281 307.871094 L 47.738281 308.398438 L 31.171875 284.144531 L 28.808594 283.617188 Z M 343.878906 284.011719 L 327.332031 308.285156 L 329.1875 307.773438 L 346.230469 283.484375 Z M 158.234375 287.050781 L 186.515625 287.152344 L 186.515625 257.867188 L 155.621094 257.785156 Z M 188.585938 257.867188 L 188.585938 287.152344 L 216.867188 287.019531 L 219.480469 257.769531 Z M 129.015625 286.707031 L 156.148438 287.035156 L 153.535156 257.785156 L 123.921875 257.539062 Z M 221.570312 257.769531 L 218.957031 287.019531 L 246.070312 286.675781 L 251.164062 257.503906 Z M 102.015625 286.132812 L 126.898438 286.65625 L 121.785156 257.523438 L 94.636719 257.128906 Z M 253.300781 257.472656 L 248.207031 286.625 L 273.070312 286.066406 L 280.433594 257.046875 Z M 78.1875 285.359375 L 99.847656 286.066406 L 92.46875 257.078125 L 68.855469 256.550781 Z M 282.585938 257.011719 L 275.222656 286 L 296.882812 285.277344 L 306.183594 256.46875 Z M 58.320312 284.421875 L 75.988281 285.261719 L 66.6875 256.488281 L 47.460938 255.863281 Z M 308.402344 256.421875 L 299.101562 285.195312 L 316.75 284.339844 L 327.613281 255.78125 Z M 42.957031 283.371094 L 56.039062 284.292969 L 45.191406 255.796875 L 30.976562 255.105469 Z M 329.878906 255.679688 L 319.050781 284.191406 L 332.113281 283.273438 L 344.09375 254.992188 Z M 32.503906 282.238281 L 40.605469 283.140625 L 28.644531 254.972656 L 19.835938 254.300781 Z M 346.394531 254.859375 L 334.464844 283.027344 L 342.550781 282.121094 L 355.203125 254.167969 Z M 27.132812 281.085938 L 29.992188 281.726562 L 17.4375 254.054688 L 14.246094 253.542969 Z M 357.585938 253.9375 L 345.0625 281.613281 L 347.90625 280.972656 L 360.757812 253.429688 Z M 155.457031 255.714844 L 186.5 255.796875 L 186.5 223.851562 L 153.832031 223.816406 Z M 188.585938 223.851562 L 188.585938 255.796875 L 219.628906 255.699219 L 221.238281 223.800781 Z M 123.609375 255.449219 L 153.386719 255.699219 L 151.742188 223.800781 L 120.421875 223.667969 Z M 223.328125 223.785156 L 221.714844 255.679688 L 251.492188 255.417969 L 254.664062 223.636719 Z M 94.210938 255.039062 L 121.523438 255.433594 L 118.335938 223.667969 L 89.609375 223.457031 Z M 256.734375 223.621094 L 253.5625 255.386719 L 280.859375 254.972656 L 285.429688 223.40625 Z M 68.296875 254.464844 L 92.089844 254.992188 L 87.507812 223.4375 L 62.511719 223.160156 Z M 287.546875 223.375 L 282.980469 254.925781 L 306.757812 254.382812 L 312.527344 223.09375 Z M 46.753906 253.773438 L 66.175781 254.414062 L 60.390625 223.160156 L 40.015625 222.832031 Z M 314.664062 223.0625 L 308.894531 254.316406 L 328.300781 253.675781 L 335.039062 222.714844 Z M 30.1875 252.984375 L 44.617188 253.675781 L 37.878906 222.765625 L 22.761719 222.402344 Z M 337.175781 222.667969 L 330.453125 253.578125 L 344.867188 252.871094 L 352.277344 222.289062 Z M 18.980469 252.148438 L 28.003906 252.839844 L 20.589844 222.339844 L 11.140625 221.976562 Z M 354.429688 222.222656 L 347.035156 252.722656 L 356.042969 252.015625 L 363.863281 221.84375 Z M 13.3125 251.292969 L 16.746094 251.835938 L 8.941406 221.84375 L 5.324219 221.550781 Z M 366.066406 221.699219 L 358.277344 251.722656 L 361.695312 251.179688 L 369.695312 221.253906 Z M 153.75 221.730469 L 186.484375 221.761719 L 186.46875 188.453125 L 153.171875 188.46875 Z M 188.570312 188.453125 L 188.585938 221.761719 L 221.320312 221.714844 L 221.863281 188.453125 Z M 120.273438 221.597656 L 151.679688 221.730469 L 151.121094 188.46875 L 119.191406 188.484375 Z M 223.933594 188.453125 L 223.390625 221.714844 L 254.78125 221.566406 L 255.847656 188.453125 Z M 89.394531 221.386719 L 118.1875 221.597656 L 117.101562 188.484375 L 87.835938 188.503906 Z M 257.933594 188.4375 L 256.867188 221.550781 L 285.65625 221.320312 L 287.203125 188.4375 Z M 62.234375 221.089844 L 87.308594 221.367188 L 85.75 188.503906 L 60.261719 188.519531 Z M 289.289062 188.4375 L 287.746094 221.304688 L 312.804688 221.007812 L 314.761719 188.4375 Z M 39.6875 220.726562 L 60.160156 221.054688 L 58.191406 188.519531 L 37.402344 188.535156 Z M 316.847656 188.4375 L 314.890625 220.972656 L 335.351562 220.628906 L 337.621094 188.4375 Z M 22.382812 220.316406 L 37.597656 220.679688 L 35.316406 188.535156 L 19.867188 188.550781 Z M 339.722656 188.4375 L 337.457031 220.578125 L 352.65625 220.203125 L 355.152344 188.4375 Z M 10.730469 219.875 L 20.277344 220.25 L 17.765625 188.550781 L 8.070312 188.566406 Z M 357.242188 188.4375 L 354.742188 220.121094 L 364.273438 219.742188 L 366.917969 188.4375 Z M 4.878906 219.429688 L 8.628906 219.742188 L 5.980469 188.566406 L 2.167969 188.585938 Z M 369.007812 188.4375 L 366.378906 219.5625 L 370.125 219.101562 L 372.785156 188.453125 Z M 4.878906 155.636719 L 2.167969 186.496094 L 5.980469 186.480469 L 8.609375 155.308594 Z M 10.714844 155.175781 L 8.070312 186.480469 L 17.765625 186.464844 L 20.261719 154.78125 Z M 22.347656 154.714844 L 19.851562 186.480469 L 35.296875 186.464844 L 37.566406 154.320312 Z M 39.652344 154.273438 L 37.386719 186.449219 L 58.171875 186.433594 L 60.113281 153.894531 Z M 62.214844 153.878906 L 60.261719 186.449219 L 85.75 186.433594 L 87.292969 153.566406 Z M 89.378906 153.53125 L 87.835938 186.414062 L 117.101562 186.398438 L 118.171875 153.300781 Z M 120.257812 153.285156 L 119.191406 186.398438 L 151.121094 186.382812 L 151.660156 153.121094 Z M 153.730469 153.121094 L 153.191406 186.382812 L 186.484375 186.367188 L 186.46875 153.054688 Z M 188.554688 153.074219 L 188.570312 186.382812 L 221.863281 186.367188 L 221.304688 153.105469 Z M 369.007812 186.367188 L 372.785156 186.382812 L 370.089844 155.71875 L 366.359375 155.242188 Z M 223.375 153.105469 L 223.933594 186.367188 L 255.847656 186.367188 L 254.746094 153.253906 Z M 357.242188 186.351562 L 366.917969 186.351562 L 364.257812 155.042969 L 354.726562 154.648438 Z M 256.851562 153.253906 L 257.933594 186.351562 L 287.203125 186.351562 L 285.625 153.46875 Z M 339.722656 186.351562 L 355.152344 186.351562 L 352.621094 154.585938 L 337.421875 154.207031 Z M 287.710938 153.484375 L 289.289062 186.351562 L 314.761719 186.351562 L 312.789062 153.777344 Z M 316.847656 186.351562 L 337.636719 186.351562 L 335.335938 154.15625 L 314.875 153.8125 Z M 366.03125 153.105469 L 369.679688 153.566406 L 361.644531 123.640625 L 358.226562 123.082031 Z M 13.277344 123.773438 L 5.324219 153.515625 L 8.941406 153.203125 L 16.710938 123.214844 Z M 18.929688 122.902344 L 11.109375 153.074219 L 20.558594 152.679688 L 27.953125 122.195312 Z M 354.414062 152.5625 L 363.847656 152.941406 L 355.992188 122.769531 L 346.988281 122.0625 Z M 30.136719 122.03125 L 22.726562 152.613281 L 37.84375 152.21875 L 44.550781 121.324219 Z M 337.144531 152.121094 L 352.246094 152.496094 L 344.800781 121.914062 L 330.390625 121.207031 Z M 46.703125 121.226562 L 39.980469 152.183594 L 60.359375 151.824219 L 66.128906 120.550781 Z M 314.644531 151.726562 L 335.007812 152.070312 L 328.253906 121.109375 L 308.84375 120.46875 Z M 68.261719 120.5 L 62.496094 151.789062 L 87.488281 151.476562 L 92.042969 119.925781 Z M 287.53125 151.414062 L 312.507812 151.707031 L 306.707031 120.417969 L 282.929688 119.878906 Z M 94.160156 119.894531 L 89.59375 151.460938 L 118.300781 151.230469 L 121.457031 119.464844 Z M 256.71875 151.167969 L 285.429688 151.378906 L 280.828125 119.8125 L 253.53125 119.402344 Z M 123.5625 119.433594 L 120.40625 151.199219 L 151.726562 151.050781 L 153.339844 119.171875 Z M 223.308594 151.035156 L 254.632812 151.167969 L 251.445312 119.402344 L 221.683594 119.15625 Z M 155.410156 119.15625 L 153.796875 151.050781 L 186.46875 150.984375 L 186.449219 119.054688 Z M 188.554688 150.984375 L 221.222656 151.019531 L 219.578125 119.121094 L 188.539062 119.039062 Z M 27.066406 93.980469 L 14.214844 121.503906 L 17.402344 120.996094 L 29.925781 93.320312 Z M 357.535156 120.878906 L 360.707031 121.390625 L 347.839844 93.863281 L 344.996094 93.207031 Z M 32.4375 92.8125 L 19.800781 120.765625 L 28.609375 120.058594 L 40.539062 91.890625 Z M 346.34375 119.941406 L 355.136719 120.632812 L 342.46875 92.695312 L 334.382812 91.777344 Z M 42.890625 91.644531 L 30.910156 119.910156 L 45.125 119.203125 L 55.953125 90.707031 Z M 329.832031 119.105469 L 344.027344 119.8125 L 332.03125 91.546875 L 318.96875 90.609375 Z M 58.238281 90.5625 L 47.394531 119.121094 L 66.621094 118.464844 L 75.90625 89.691406 Z M 308.351562 118.367188 L 327.5625 119.007812 L 316.683594 90.460938 L 299.035156 89.609375 Z M 78.125 89.589844 L 68.820312 118.398438 L 92.4375 117.839844 L 99.78125 88.851562 Z M 282.535156 117.773438 L 306.132812 118.316406 L 296.816406 89.507812 L 275.15625 88.785156 Z M 101.953125 88.785156 L 94.589844 117.789062 L 121.738281 117.363281 L 126.832031 88.226562 Z M 253.25 117.332031 L 280.382812 117.742188 L 273.003906 88.738281 L 248.140625 88.195312 Z M 128.949219 88.195312 L 123.855469 117.347656 L 153.46875 117.082031 L 156.066406 87.847656 Z M 221.519531 117.050781 L 251.132812 117.296875 L 246.019531 88.160156 L 218.90625 87.832031 Z M 158.167969 87.816406 L 155.574219 117.066406 L 186.46875 116.96875 L 186.449219 87.703125 Z M 188.539062 116.96875 L 219.433594 117.050781 L 216.804688 87.800781 L 188.519531 87.703125 Z M 45.78125 67.175781 L 28.742188 91.464844 L 31.109375 90.921875 L 47.640625 66.652344 Z M 343.816406 90.808594 L 346.164062 91.347656 L 329.105469 67.09375 L 327.25 66.566406 Z M 50.710938 65.84375 L 33.867188 90.542969 L 41.574219 89.671875 L 57.417969 64.890625 Z M 333.347656 89.574219 L 341.039062 90.445312 L 324.175781 65.761719 L 317.488281 64.808594 Z M 60.113281 64.53125 L 44.171875 89.460938 L 56.890625 88.539062 L 71.269531 63.527344 Z M 318.046875 88.457031 L 330.75 89.359375 L 314.777344 64.449219 L 303.636719 63.445312 Z M 73.800781 63.316406 L 59.375 88.425781 L 76.710938 87.570312 L 89.035156 62.378906 Z M 298.246094 87.488281 L 315.566406 88.324219 L 301.121094 63.230469 L 285.90625 62.296875 Z M 91.402344 62.230469 L 79.058594 87.472656 L 100.421875 86.75 L 110.167969 61.425781 Z M 274.53125 86.699219 L 295.878906 87.40625 L 283.503906 62.164062 L 264.753906 61.375 Z M 112.417969 61.34375 L 102.675781 86.699219 L 127.273438 86.140625 L 134.011719 60.71875 Z M 247.695312 86.105469 L 272.28125 86.648438 L 262.503906 61.308594 L 240.925781 60.71875 Z M 136.183594 60.667969 L 129.445312 86.105469 L 156.3125 85.761719 L 159.746094 60.289062 Z M 218.660156 85.730469 L 245.527344 86.058594 L 238.757812 60.636719 L 215.191406 60.257812 Z M 161.851562 60.257812 L 158.414062 85.730469 L 186.449219 85.597656 L 186.433594 60.109375 Z M 188.519531 85.613281 L 216.554688 85.714844 L 213.089844 60.242188 L 188.503906 60.125 Z M 68.804688 44.203125 L 48.707031 64.203125 L 49.5625 63.957031 L 68.96875 44.152344 Z M 325.328125 63.855469 L 326.164062 64.085938 L 306.050781 44.121094 L 305.902344 44.070312 Z M 73.128906 42.886719 L 52.996094 63.429688 L 58.996094 62.574219 L 77.859375 42.117188 Z M 315.894531 62.476562 L 321.875 63.332031 L 301.730469 42.804688 L 297.011719 42.035156 Z M 81.179688 41.574219 L 62.117188 62.261719 L 72.652344 61.308594 L 89.789062 40.667969 Z M 302.253906 61.226562 L 312.789062 62.179688 L 293.710938 41.507812 L 285.097656 40.605469 Z M 92.75 40.375 L 75.511719 61.128906 L 90.167969 60.226562 L 104.859375 39.488281 Z M 284.738281 60.144531 L 299.394531 61.046875 L 282.140625 40.308594 L 270.046875 39.4375 Z M 107.539062 39.304688 L 92.816406 60.09375 L 111.070312 59.304688 L 122.671875 38.550781 Z M 263.851562 59.253906 L 282.109375 60.027344 L 267.367188 39.257812 L 252.25 38.5 Z M 125.121094 38.433594 L 113.503906 59.222656 L 134.652344 58.613281 L 142.65625 37.84375 Z M 240.285156 58.597656 L 261.417969 59.191406 L 249.785156 38.386719 L 232.234375 37.808594 Z M 144.925781 37.777344 L 136.90625 58.582031 L 160.074219 58.203125 L 164.167969 37.414062 Z M 214.863281 58.1875 L 238.035156 58.550781 L 229.980469 37.761719 L 210.738281 37.398438 Z M 166.289062 37.382812 L 162.195312 58.1875 L 186.417969 58.054688 L 186.402344 37.269531 Z M 188.503906 58.039062 L 212.726562 58.15625 L 208.601562 37.367188 L 188.488281 37.25 Z M 98.910156 24.582031 L 76.921875 40.144531 L 80.257812 39.601562 L 100.75 24.253906 Z M 294.613281 39.519531 L 297.933594 40.0625 L 275.929688 24.53125 L 274.105469 24.203125 Z M 105.304688 23.449219 L 84.320312 39.140625 L 91.796875 38.351562 L 110.578125 22.824219 Z M 283.078125 38.304688 L 290.539062 39.09375 L 269.535156 23.414062 L 264.261719 22.808594 Z M 114.390625 22.414062 L 95.410156 38.089844 L 106.535156 37.285156 L 122.640625 21.738281 Z M 268.371094 37.21875 L 279.480469 38.023438 L 260.480469 22.363281 L 252.234375 21.707031 Z M 125.894531 21.492188 L 109.691406 37.121094 L 123.972656 36.398438 L 136.691406 20.882812 Z M 250.917969 36.347656 L 265.183594 37.054688 L 248.960938 21.441406 L 238.164062 20.851562 Z M 139.519531 20.734375 L 126.75 36.296875 L 143.578125 35.738281 L 152.367188 20.257812 Z M 231.3125 35.707031 L 248.140625 36.265625 L 235.355469 20.71875 L 222.503906 20.257812 Z M 154.816406 20.175781 L 146.007812 35.675781 L 164.660156 35.3125 L 169.148438 19.863281 Z M 210.261719 35.296875 L 228.898438 35.640625 L 220.074219 20.144531 L 205.757812 19.847656 Z M 171.316406 19.832031 L 166.828125 35.296875 L 186.417969 35.164062 L 186.402344 19.71875 Z M 188.488281 35.164062 L 208.078125 35.28125 L 203.558594 19.816406 L 188.472656 19.71875 Z M 131.664062 10.664062 L 110.90625 20.703125 L 113.652344 20.390625 L 132.140625 10.597656 Z M 261.207031 20.339844 L 263.949219 20.652344 L 243.179688 10.628906 L 242.703125 10.5625 Z M 137.921875 9.90625 L 118.925781 19.964844 L 125.121094 19.472656 L 141.175781 9.628906 Z M 249.75 19.40625 L 255.945312 19.898438 L 236.933594 9.855469 L 233.679688 9.578125 Z M 145.8125 9.234375 L 129.527344 19.207031 L 138.628906 18.699219 L 151.382812 8.902344 Z M 236.242188 18.664062 L 245.347656 19.175781 L 229.046875 9.214844 L 223.476562 8.886719 Z M 155.078125 8.691406 L 142.230469 18.550781 L 153.714844 18.125 L 162.539062 8.394531 Z M 221.15625 18.105469 L 232.644531 18.519531 L 219.777344 8.65625 L 212.300781 8.363281 Z M 165.464844 8.28125 L 156.609375 18.058594 L 169.871094 17.777344 L 174.390625 8.082031 Z M 205.019531 17.761719 L 218.28125 18.042969 L 209.390625 8.261719 L 200.484375 8.066406 Z M 176.691406 8.035156 L 172.171875 17.746094 L 186.402344 17.648438 L 186.386719 7.96875 Z M 188.488281 17.648438 L 202.71875 17.746094 L 198.183594 8.035156 L 188.488281 7.96875 Z M 156.246094 5.945312 L 153.980469 6.652344 L 154.472656 6.621094 Z M 220.367188 6.605469 L 220.863281 6.636719 L 218.625 5.945312 Z M 171.234375 2.480469 L 161.011719 6.375 L 164.808594 6.175781 L 171.710938 2.460938 Z M 210.148438 6.210938 L 213.84375 6.355469 L 203.625 2.460938 L 203.148438 2.445312 Z M 176.460938 2.265625 L 169.3125 6.109375 L 175.570312 5.960938 L 179.203125 2.183594 Z M 199.285156 5.960938 L 205.546875 6.09375 L 198.382812 2.25 L 195.636719 2.183594 Z M 182.160156 2.132812 L 178.496094 5.945312 L 186.386719 5.878906 L 186.386719 2.101562 Z M 188.472656 5.878906 L 196.359375 5.929688 L 192.679688 2.132812 L 188.457031 2.101562 Z M 188.472656 5.878906 " fill-opacity="1" fill-rule="nonzero"/></svg>